<svg width="240" height="240" viewBox="0 0 240 240" fill="none" xmlns="http://www.w3.org/2000/svg">
  <defs>
    <radialGradient id="coatMain" cx="0" cy="0" r="1" gradientUnits="userSpaceOnUse" gradientTransform="translate(120 140) rotate(90) scale(88 82)">
      <stop offset="0" stop-color="#FFCE8A"/>
      <stop offset="1" stop-color="#D38438"/>
    </radialGradient>
    <radialGradient id="faceTone" cx="0" cy="0" r="1" gradientUnits="userSpaceOnUse" gradientTransform="translate(120 96) rotate(90) scale(62 56)">
      <stop offset="0" stop-color="#FFD8A0"/>
      <stop offset="1" stop-color="#C17231"/>
    </radialGradient>
    <radialGradient id="creamPatch" cx="0" cy="0" r="1" gradientUnits="userSpaceOnUse" gradientTransform="translate(120 153) rotate(90) scale(56 54)">
      <stop offset="0" stop-color="#FFFDF7"/>
      <stop offset="1" stop-color="#F0E0C5"/>
    </radialGradient>
    <linearGradient id="earLeft" x1="46" y1="89" x2="86" y2="160" gradientUnits="userSpaceOnUse">
      <stop offset="0" stop-color="#C3783A"/>
      <stop offset="1" stop-color="#8F4E22"/>
    </linearGradient>
    <linearGradient id="earRight" x1="194" y1="89" x2="154" y2="160" gradientUnits="userSpaceOnUse">
      <stop offset="0" stop-color="#C3783A"/>
      <stop offset="1" stop-color="#8F4E22"/>
    </linearGradient>
    <radialGradient id="eyeShade" cx="0" cy="0" r="1" gradientUnits="userSpaceOnUse" gradientTransform="translate(98 106) rotate(90) scale(16 14)">
      <stop offset="0" stop-color="#2E2E2E"/>
      <stop offset="1" stop-color="#0A0A0A"/>
    </radialGradient>
    <radialGradient id="noseShade" cx="0" cy="0" r="1" gradientUnits="userSpaceOnUse" gradientTransform="translate(120 132) rotate(90) scale(8 9)">
      <stop offset="0" stop-color="#2F2F2F"/>
      <stop offset="1" stop-color="#090909"/>
    </radialGradient>
  </defs>

  <ellipse cx="120" cy="226" rx="55" ry="11" fill="#A97543" opacity="0.22"/>

  <path d="M71 143C71 114 92 91 120 91C148 91 169 114 169 143V169C169 197 147 219 120 219C93 219 71 197 71 169V143Z" fill="url(#coatMain)"/>
  <path d="M82 175C75 182 74 194 80 202C86 211 98 212 106 205C111 201 113 194 110 186C107 179 96 172 82 175Z" fill="#E8B87E"/>
  <path d="M158 175C165 182 166 194 160 202C154 211 142 212 134 205C129 201 127 194 130 186C133 179 144 172 158 175Z" fill="#E8B87E"/>
  <circle cx="98" cy="214" r="10" fill="#D9934C"/>
  <circle cx="142" cy="214" r="10" fill="#D9934C"/>

  <path d="M120 188C107 188 96 198 96 210C96 214 98 218 101 221H139C142 218 144 214 144 210C144 198 133 188 120 188Z" fill="url(#creamPatch)"/>
  <path d="M120 139C95 139 74 156 74 177C74 190 82 202 94 209H146C158 202 166 190 166 177C166 156 145 139 120 139Z" fill="url(#creamPatch)"/>

  <path d="M72 88C56 96 45 113 46 131C47 148 56 160 71 163C78 146 79 104 72 88Z" fill="url(#earLeft)"/>
  <path d="M168 88C184 96 195 113 194 131C193 148 184 160 169 163C162 146 161 104 168 88Z" fill="url(#earRight)"/>
  <circle cx="60" cy="114" r="12" fill="#A35B2B"/>
  <circle cx="68" cy="132" r="13" fill="#955126"/>
  <circle cx="75" cy="148" r="11" fill="#854821"/>
  <circle cx="180" cy="114" r="12" fill="#A35B2B"/>
  <circle cx="172" cy="132" r="13" fill="#955126"/>
  <circle cx="165" cy="148" r="11" fill="#854821"/>

  <circle cx="120" cy="98" r="50" fill="url(#faceTone)"/>
  <path d="M85 65C95 48 107 40 120 40C133 40 145 48 155 65C145 60 134 58 120 58C106 58 95 60 85 65Z" fill="#FFD8A7" opacity="0.85"/>
  <circle cx="95" cy="66" r="10" fill="#D48745"/>
  <circle cx="145" cy="66" r="10" fill="#D48745"/>
  <circle cx="84" cy="106" r="9" fill="#AF6630" opacity="0.82"/>
  <circle cx="156" cy="106" r="9" fill="#AF6630" opacity="0.82"/>

  <ellipse cx="120" cy="138" rx="30" ry="23" fill="url(#creamPatch)"/>
  <circle cx="104" cy="138" r="9" fill="#FFFFFF" opacity="0.78"/>
  <circle cx="136" cy="138" r="9" fill="#FFFFFF" opacity="0.78"/>

  <circle cx="98" cy="106" r="13" fill="url(#eyeShade)"/>
  <circle cx="142" cy="106" r="13" fill="url(#eyeShade)"/>
  <circle cx="94" cy="100" r="4" fill="#FFFFFF" opacity="0.95"/>
  <circle cx="138" cy="100" r="4" fill="#FFFFFF" opacity="0.95"/>
  <circle cx="101" cy="110" r="2" fill="#FFFFFF" opacity="0.76"/>
  <circle cx="145" cy="110" r="2" fill="#FFFFFF" opacity="0.76"/>

  <ellipse cx="120" cy="132" rx="7" ry="6" fill="url(#noseShade)"/>
  <ellipse cx="118" cy="130" rx="1.4" ry="1" fill="#FFFFFF" opacity="0.8"/>
  <path d="M120 137V141" stroke="#352214" stroke-width="2.4" stroke-linecap="round"/>
  <path d="M112 145C114.5 148.5 117 150 120 150C123 150 125.5 148.5 128 145" stroke="#352214" stroke-width="2.2" stroke-linecap="round"/>

  <ellipse cx="90" cy="140" rx="6" ry="3.6" fill="#D47A79" opacity="0.26"/>
  <ellipse cx="150" cy="140" rx="6" ry="3.6" fill="#D47A79" opacity="0.26"/>

  <path d="M69 143C69 113 91 89 120 89C149 89 171 113 171 143V169C171 198 149 221 120 221C91 221 69 198 69 169V143Z" stroke="#7F4A25" stroke-width="2.8"/>
  <circle cx="120" cy="98" r="50" stroke="#7F4A25" stroke-width="2.6"/>
  <path d="M72 88C56 96 45 113 46 131C47 148 56 160 71 163" stroke="#6F3F1E" stroke-width="2.4" stroke-linecap="round"/>
  <path d="M168 88C184 96 195 113 194 131C193 148 184 160 169 163" stroke="#6F3F1E" stroke-width="2.4" stroke-linecap="round"/>
</svg>
