<svg width="320" height="320" viewBox="0 0 48 48" fill="none" xmlns="http://www.w3.org/2000/svg" shape-rendering="crispEdges">
  <rect x="19" y="4" width="1" height="1" fill="#7E4617"/>
  <rect x="21" y="4" width="2" height="1" fill="#7E4617"/>
  <rect x="24" y="4" width="1" height="1" fill="#7E4617"/>
  <rect x="16" y="5" width="1" height="1" fill="#7E4617"/>
  <rect x="18" y="5" width="1" height="1" fill="#7E4617"/>
  <rect x="20" y="5" width="1" height="1" fill="#7E4617"/>
  <rect x="22" y="5" width="2" height="1" fill="#7E4617"/>
  <rect x="25" y="5" width="1" height="1" fill="#7E4617"/>
  <rect x="27" y="5" width="1" height="1" fill="#7E4617"/>
  <rect x="15" y="6" width="1" height="1" fill="#7E4617"/>
  <rect x="17" y="6" width="12" height="1" fill="#7E4617"/>
  <rect x="14" y="7" width="4" height="1" fill="#7E4617"/>
  <rect x="18" y="7" width="10" height="1" fill="#EE8F2B"/>
  <rect x="28" y="7" width="2" height="1" fill="#7E4617"/>
  <rect x="14" y="8" width="1" height="1" fill="#7E4617"/>
  <rect x="15" y="8" width="7" height="1" fill="#EE8F2B"/>
  <rect x="22" y="8" width="1" height="1" fill="#E07E27" fill-opacity="0.667"/>
  <rect x="23" y="8" width="6" height="1" fill="#EE8F2B"/>
  <rect x="29" y="8" width="2" height="1" fill="#7E4617"/>
  <rect x="9" y="9" width="1" height="1" fill="#7E4617"/>
  <rect x="12" y="9" width="3" height="1" fill="#7E4617"/>
  <rect x="15" y="9" width="2" height="1" fill="#EE8F2B"/>
  <rect x="17" y="9" width="11" height="1" fill="#E07E27" fill-opacity="0.667"/>
  <rect x="28" y="9" width="2" height="1" fill="#EE8F2B"/>
  <rect x="30" y="9" width="3" height="1" fill="#7E4617"/>
  <rect x="35" y="9" width="1" height="1" fill="#7E4617"/>
  <rect x="7" y="10" width="6" height="1" fill="#7E4617"/>
  <rect x="13" y="10" width="3" height="1" fill="#EE8F2B"/>
  <rect x="16" y="10" width="13" height="1" fill="#E07E27" fill-opacity="0.667"/>
  <rect x="29" y="10" width="3" height="1" fill="#EE8F2B"/>
  <rect x="32" y="10" width="6" height="1" fill="#7E4617"/>
  <rect x="6" y="11" width="2" height="1" fill="#7E4617"/>
  <rect x="8" y="11" width="5" height="1" fill="#C06C22"/>
  <rect x="13" y="11" width="1" height="1" fill="#EE8F2B"/>
  <rect x="14" y="11" width="17" height="1" fill="#E07E27" fill-opacity="0.667"/>
  <rect x="31" y="11" width="1" height="1" fill="#EE8F2B"/>
  <rect x="32" y="11" width="5" height="1" fill="#C06C22"/>
  <rect x="37" y="11" width="2" height="1" fill="#7E4617"/>
  <rect x="5" y="12" width="2" height="1" fill="#7E4617"/>
  <rect x="7" y="12" width="7" height="1" fill="#C06C22"/>
  <rect x="14" y="12" width="17" height="1" fill="#E07E27" fill-opacity="0.667"/>
  <rect x="31" y="12" width="7" height="1" fill="#C06C22"/>
  <rect x="38" y="12" width="2" height="1" fill="#7E4617"/>
  <rect x="4" y="13" width="2" height="1" fill="#7E4617"/>
  <rect x="6" y="13" width="9" height="1" fill="#C06C22"/>
  <rect x="15" y="13" width="15" height="1" fill="#E07E27" fill-opacity="0.667"/>
  <rect x="30" y="13" width="9" height="1" fill="#C06C22"/>
  <rect x="39" y="13" width="2" height="1" fill="#7E4617"/>
  <rect x="4" y="14" width="1" height="1" fill="#7E4617"/>
  <rect x="5" y="14" width="10" height="1" fill="#C06C22"/>
  <rect x="15" y="14" width="2" height="1" fill="#E07E27" fill-opacity="0.667"/>
  <rect x="17" y="14" width="1" height="1" fill="#080A0E"/>
  <rect x="18" y="14" width="9" height="1" fill="#E07E27" fill-opacity="0.667"/>
  <rect x="27" y="14" width="1" height="1" fill="#080A0E"/>
  <rect x="28" y="14" width="2" height="1" fill="#E07E27" fill-opacity="0.667"/>
  <rect x="30" y="14" width="10" height="1" fill="#C06C22"/>
  <rect x="40" y="14" width="1" height="1" fill="#7E4617"/>
  <rect x="4" y="15" width="1" height="1" fill="#7E4617"/>
  <rect x="5" y="15" width="10" height="1" fill="#C06C22"/>
  <rect x="15" y="15" width="2" height="1" fill="#080A0E"/>
  <rect x="17" y="15" width="1" height="1" fill="#FFFFFF"/>
  <rect x="18" y="15" width="2" height="1" fill="#080A0E"/>
  <rect x="20" y="15" width="5" height="1" fill="#E07E27" fill-opacity="0.667"/>
  <rect x="25" y="15" width="2" height="1" fill="#080A0E"/>
  <rect x="27" y="15" width="1" height="1" fill="#FFFFFF"/>
  <rect x="28" y="15" width="2" height="1" fill="#080A0E"/>
  <rect x="30" y="15" width="10" height="1" fill="#C06C22"/>
  <rect x="40" y="15" width="1" height="1" fill="#7E4617"/>
  <rect x="4" y="16" width="1" height="1" fill="#7E4617"/>
  <rect x="5" y="16" width="10" height="1" fill="#C06C22"/>
  <rect x="15" y="16" width="1" height="1" fill="#080A0E"/>
  <rect x="16" y="16" width="1" height="1" fill="#FFFFFF"/>
  <rect x="17" y="16" width="3" height="1" fill="#080A0E"/>
  <rect x="20" y="16" width="5" height="1" fill="#E07E27" fill-opacity="0.667"/>
  <rect x="25" y="16" width="1" height="1" fill="#080A0E"/>
  <rect x="26" y="16" width="1" height="1" fill="#FFFFFF"/>
  <rect x="27" y="16" width="3" height="1" fill="#080A0E"/>
  <rect x="30" y="16" width="10" height="1" fill="#C06C22"/>
  <rect x="40" y="16" width="1" height="1" fill="#7E4617"/>
  <rect x="3" y="17" width="2" height="1" fill="#7E4617"/>
  <rect x="5" y="17" width="9" height="1" fill="#C06C22"/>
  <rect x="14" y="17" width="4" height="1" fill="#080A0E"/>
  <rect x="18" y="17" width="1" height="1" fill="#FFFFFF"/>
  <rect x="19" y="17" width="2" height="1" fill="#080A0E"/>
  <rect x="21" y="17" width="3" height="1" fill="#E07E27" fill-opacity="0.667"/>
  <rect x="24" y="17" width="4" height="1" fill="#080A0E"/>
  <rect x="28" y="17" width="1" height="1" fill="#FFFFFF"/>
  <rect x="29" y="17" width="2" height="1" fill="#080A0E"/>
  <rect x="31" y="17" width="9" height="1" fill="#C06C22"/>
  <rect x="40" y="17" width="2" height="1" fill="#7E4617"/>
  <rect x="4" y="18" width="1" height="1" fill="#7E4617"/>
  <rect x="5" y="18" width="10" height="1" fill="#C06C22"/>
  <rect x="15" y="18" width="5" height="1" fill="#080A0E"/>
  <rect x="20" y="18" width="2" height="1" fill="#E07E27" fill-opacity="0.667"/>
  <rect x="22" y="18" width="1" height="1" fill="#FFF5E4"/>
  <rect x="23" y="18" width="2" height="1" fill="#E07E27" fill-opacity="0.667"/>
  <rect x="25" y="18" width="5" height="1" fill="#080A0E"/>
  <rect x="30" y="18" width="10" height="1" fill="#C06C22"/>
  <rect x="40" y="18" width="1" height="1" fill="#7E4617"/>
  <rect x="4" y="19" width="1" height="1" fill="#7E4617"/>
  <rect x="5" y="19" width="10" height="1" fill="#C06C22"/>
  <rect x="15" y="19" width="4" height="1" fill="#080A0E"/>
  <rect x="19" y="19" width="7" height="1" fill="#FFF5E4"/>
  <rect x="26" y="19" width="4" height="1" fill="#080A0E"/>
  <rect x="30" y="19" width="10" height="1" fill="#C06C22"/>
  <rect x="40" y="19" width="1" height="1" fill="#7E4617"/>
  <rect x="4" y="20" width="1" height="1" fill="#7E4617"/>
  <rect x="5" y="20" width="10" height="1" fill="#C06C22"/>
  <rect x="15" y="20" width="2" height="1" fill="#E07E27" fill-opacity="0.667"/>
  <rect x="17" y="20" width="1" height="1" fill="#080A0E"/>
  <rect x="18" y="20" width="4" height="1" fill="#FFF5E4"/>
  <rect x="22" y="20" width="1" height="1" fill="#0A0C11"/>
  <rect x="23" y="20" width="4" height="1" fill="#FFF5E4"/>
  <rect x="27" y="20" width="1" height="1" fill="#080A0E"/>
  <rect x="28" y="20" width="2" height="1" fill="#E07E27" fill-opacity="0.667"/>
  <rect x="30" y="20" width="10" height="1" fill="#C06C22"/>
  <rect x="40" y="20" width="1" height="1" fill="#7E4617"/>
  <rect x="4" y="21" width="2" height="1" fill="#7E4617"/>
  <rect x="6" y="21" width="9" height="1" fill="#C06C22"/>
  <rect x="15" y="21" width="3" height="1" fill="#E07E27" fill-opacity="0.667"/>
  <rect x="18" y="21" width="2" height="1" fill="#FFF5E4"/>
  <rect x="20" y="21" width="5" height="1" fill="#0A0C11"/>
  <rect x="25" y="21" width="2" height="1" fill="#FFF5E4"/>
  <rect x="27" y="21" width="3" height="1" fill="#E07E27" fill-opacity="0.667"/>
  <rect x="30" y="21" width="9" height="1" fill="#C06C22"/>
  <rect x="39" y="21" width="2" height="1" fill="#7E4617"/>
  <rect x="5" y="22" width="2" height="1" fill="#7E4617"/>
  <rect x="7" y="22" width="7" height="1" fill="#C06C22"/>
  <rect x="14" y="22" width="3" height="1" fill="#E07E27" fill-opacity="0.667"/>
  <rect x="17" y="22" width="5" height="1" fill="#FFF5E4"/>
  <rect x="22" y="22" width="1" height="1" fill="#0A0C11"/>
  <rect x="23" y="22" width="5" height="1" fill="#FFF5E4"/>
  <rect x="28" y="22" width="3" height="1" fill="#E07E27" fill-opacity="0.667"/>
  <rect x="31" y="22" width="7" height="1" fill="#C06C22"/>
  <rect x="38" y="22" width="2" height="1" fill="#7E4617"/>
  <rect x="6" y="23" width="2" height="1" fill="#7E4617"/>
  <rect x="8" y="23" width="3" height="1" fill="#C06C22"/>
  <rect x="11" y="23" width="4" height="1" fill="#7E4617"/>
  <rect x="15" y="23" width="3" height="1" fill="#E07E27" fill-opacity="0.667"/>
  <rect x="18" y="23" width="3" height="1" fill="#FFF5E4"/>
  <rect x="21" y="23" width="2" height="1" fill="#442B1D"/>
  <rect x="23" y="23" width="4" height="1" fill="#FFF5E4"/>
  <rect x="27" y="23" width="3" height="1" fill="#E07E27" fill-opacity="0.667"/>
  <rect x="30" y="23" width="4" height="1" fill="#7E4617"/>
  <rect x="34" y="23" width="3" height="1" fill="#C06C22"/>
  <rect x="37" y="23" width="2" height="1" fill="#7E4617"/>
  <rect x="7" y="24" width="5" height="1" fill="#7E4617"/>
  <rect x="14" y="24" width="2" height="1" fill="#7E4617"/>
  <rect x="16" y="24" width="2" height="1" fill="#E07E27" fill-opacity="0.667"/>
  <rect x="18" y="24" width="2" height="1" fill="#FFF5E4"/>
  <rect x="20" y="24" width="1" height="1" fill="#442B1D"/>
  <rect x="21" y="24" width="3" height="1" fill="#FFF5E4"/>
  <rect x="24" y="24" width="1" height="1" fill="#442B1D"/>
  <rect x="25" y="24" width="2" height="1" fill="#FFF5E4"/>
  <rect x="27" y="24" width="2" height="1" fill="#E07E27" fill-opacity="0.667"/>
  <rect x="29" y="24" width="2" height="1" fill="#7E4617"/>
  <rect x="33" y="24" width="5" height="1" fill="#7E4617"/>
  <rect x="9" y="25" width="1" height="1" fill="#7E4617"/>
  <rect x="15" y="25" width="3" height="1" fill="#7E4617"/>
  <rect x="18" y="25" width="1" height="1" fill="#E07E27" fill-opacity="0.667"/>
  <rect x="19" y="25" width="2" height="1" fill="#FFF5E4"/>
  <rect x="21" y="25" width="1" height="1" fill="#442B1D"/>
  <rect x="22" y="25" width="1" height="1" fill="#FFF7E8" fill-opacity="0.843"/>
  <rect x="23" y="25" width="1" height="1" fill="#442B1D"/>
  <rect x="24" y="25" width="2" height="1" fill="#FFF5E4"/>
  <rect x="26" y="25" width="2" height="1" fill="#E07E27" fill-opacity="0.667"/>
  <rect x="28" y="25" width="1" height="1" fill="#EE8F2B"/>
  <rect x="29" y="25" width="1" height="1" fill="#7E4617"/>
  <rect x="35" y="25" width="1" height="1" fill="#7E4617"/>
  <rect x="17" y="26" width="2" height="1" fill="#7E4617"/>
  <rect x="19" y="26" width="1" height="1" fill="#EE8F2B"/>
  <rect x="20" y="26" width="5" height="1" fill="#FFF7E8" fill-opacity="0.843"/>
  <rect x="25" y="26" width="3" height="1" fill="#EE8F2B"/>
  <rect x="28" y="26" width="1" height="1" fill="#EE8F2A"/>
  <rect x="29" y="26" width="2" height="1" fill="#7E4617"/>
  <rect x="18" y="27" width="1" height="1" fill="#7E4617"/>
  <rect x="19" y="27" width="6" height="1" fill="#FFF7E8" fill-opacity="0.843"/>
  <rect x="25" y="27" width="5" height="1" fill="#EE8F2A"/>
  <rect x="30" y="27" width="3" height="1" fill="#7E4617"/>
  <rect x="17" y="28" width="2" height="1" fill="#7E4617"/>
  <rect x="19" y="28" width="7" height="1" fill="#FFF7E8" fill-opacity="0.843"/>
  <rect x="26" y="28" width="1" height="1" fill="#DC7C24" fill-opacity="0.686"/>
  <rect x="27" y="28" width="5" height="1" fill="#EE8F2A"/>
  <rect x="32" y="28" width="2" height="1" fill="#7E4617"/>
  <rect x="16" y="29" width="2" height="1" fill="#7E4617"/>
  <rect x="18" y="29" width="8" height="1" fill="#FFF7E8" fill-opacity="0.843"/>
  <rect x="26" y="29" width="5" height="1" fill="#DC7C24" fill-opacity="0.686"/>
  <rect x="31" y="29" width="2" height="1" fill="#EE8F2A"/>
  <rect x="33" y="29" width="2" height="1" fill="#7E4617"/>
  <rect x="15" y="30" width="2" height="1" fill="#7E4617"/>
  <rect x="17" y="30" width="9" height="1" fill="#FFF7E8" fill-opacity="0.843"/>
  <rect x="26" y="30" width="7" height="1" fill="#DC7C24" fill-opacity="0.686"/>
  <rect x="33" y="30" width="1" height="1" fill="#EE8F2A"/>
  <rect x="34" y="30" width="2" height="1" fill="#7E4617"/>
  <rect x="15" y="31" width="1" height="1" fill="#7E4617"/>
  <rect x="16" y="31" width="1" height="1" fill="#FFEDCA"/>
  <rect x="17" y="31" width="10" height="1" fill="#FFF7E8" fill-opacity="0.843"/>
  <rect x="27" y="31" width="7" height="1" fill="#DC7C24" fill-opacity="0.686"/>
  <rect x="34" y="31" width="1" height="1" fill="#EE8F2A"/>
  <rect x="35" y="31" width="1" height="1" fill="#7E4617"/>
  <rect x="14" y="32" width="2" height="1" fill="#7E4617"/>
  <rect x="16" y="32" width="1" height="1" fill="#FFEDCA"/>
  <rect x="17" y="32" width="9" height="1" fill="#FFF7E8" fill-opacity="0.843"/>
  <rect x="26" y="32" width="1" height="1" fill="#FFF6E4"/>
  <rect x="27" y="32" width="8" height="1" fill="#DC7C24" fill-opacity="0.686"/>
  <rect x="35" y="32" width="2" height="1" fill="#7E4617"/>
  <rect x="14" y="33" width="1" height="1" fill="#7E4617"/>
  <rect x="15" y="33" width="1" height="1" fill="#FFEDCA"/>
  <rect x="16" y="33" width="11" height="1" fill="#FFF7E8" fill-opacity="0.843"/>
  <rect x="27" y="33" width="9" height="1" fill="#DC7C24" fill-opacity="0.686"/>
  <rect x="36" y="33" width="1" height="1" fill="#7E4617"/>
  <rect x="14" y="34" width="1" height="1" fill="#7E4617"/>
  <rect x="15" y="34" width="2" height="1" fill="#FFEDCA"/>
  <rect x="17" y="34" width="9" height="1" fill="#FFF7E8" fill-opacity="0.843"/>
  <rect x="26" y="34" width="1" height="1" fill="#FFF6E4"/>
  <rect x="27" y="34" width="9" height="1" fill="#DC7C24" fill-opacity="0.686"/>
  <rect x="36" y="34" width="1" height="1" fill="#7E4617"/>
  <rect x="13" y="35" width="2" height="1" fill="#7E4617"/>
  <rect x="15" y="35" width="2" height="1" fill="#FFEDCA"/>
  <rect x="17" y="35" width="10" height="1" fill="#FFF7E8" fill-opacity="0.843"/>
  <rect x="27" y="35" width="9" height="1" fill="#DC7C24" fill-opacity="0.686"/>
  <rect x="36" y="35" width="2" height="1" fill="#7E4617"/>
  <rect x="14" y="36" width="1" height="1" fill="#7E4617"/>
  <rect x="15" y="36" width="2" height="1" fill="#FFEDCA"/>
  <rect x="17" y="36" width="9" height="1" fill="#FFF7E8" fill-opacity="0.843"/>
  <rect x="26" y="36" width="2" height="1" fill="#FFF6E4"/>
  <rect x="28" y="36" width="8" height="1" fill="#DC7C24" fill-opacity="0.686"/>
  <rect x="36" y="36" width="1" height="1" fill="#7E4617"/>
  <rect x="14" y="37" width="1" height="1" fill="#7E4617"/>
  <rect x="15" y="37" width="1" height="1" fill="#EE8F2A"/>
  <rect x="16" y="37" width="1" height="1" fill="#FFEDCA"/>
  <rect x="17" y="37" width="9" height="1" fill="#FFF7E8" fill-opacity="0.843"/>
  <rect x="26" y="37" width="1" height="1" fill="#FFF6E4"/>
  <rect x="27" y="37" width="9" height="1" fill="#DC7C24" fill-opacity="0.686"/>
  <rect x="36" y="37" width="1" height="1" fill="#7E4617"/>
  <rect x="14" y="38" width="2" height="1" fill="#7E4617"/>
  <rect x="16" y="38" width="1" height="1" fill="#EE8F2A"/>
  <rect x="17" y="38" width="1" height="1" fill="#DC7C24" fill-opacity="0.686"/>
  <rect x="18" y="38" width="8" height="1" fill="#FFF7E8" fill-opacity="0.843"/>
  <rect x="26" y="38" width="1" height="1" fill="#FFF6E4"/>
  <rect x="27" y="38" width="3" height="1" fill="#DC7C24" fill-opacity="0.686"/>
  <rect x="30" y="38" width="1" height="1" fill="#FFF6E4"/>
  <rect x="31" y="38" width="4" height="1" fill="#DC7C24" fill-opacity="0.686"/>
  <rect x="35" y="38" width="2" height="1" fill="#7E4617"/>
  <rect x="15" y="39" width="1" height="1" fill="#7E4617"/>
  <rect x="16" y="39" width="3" height="1" fill="#FFF6E4"/>
  <rect x="19" y="39" width="6" height="1" fill="#FFF7E8" fill-opacity="0.843"/>
  <rect x="25" y="39" width="2" height="1" fill="#FFF6E4"/>
  <rect x="27" y="39" width="1" height="1" fill="#DC7C24" fill-opacity="0.686"/>
  <rect x="28" y="39" width="5" height="1" fill="#FFF6E4"/>
  <rect x="33" y="39" width="2" height="1" fill="#DC7C24" fill-opacity="0.686"/>
  <rect x="35" y="39" width="1" height="1" fill="#7E4617"/>
  <rect x="15" y="40" width="1" height="1" fill="#7E4617"/>
  <rect x="16" y="40" width="4" height="1" fill="#FFF6E4"/>
  <rect x="20" y="40" width="5" height="1" fill="#FFF7E8" fill-opacity="0.843"/>
  <rect x="25" y="40" width="9" height="1" fill="#FFF6E4"/>
  <rect x="34" y="40" width="2" height="1" fill="#7E4617"/>
  <rect x="15" y="41" width="1" height="1" fill="#7E4617"/>
  <rect x="16" y="41" width="6" height="1" fill="#FFF6E4"/>
  <rect x="22" y="41" width="1" height="1" fill="#FFF7E8" fill-opacity="0.843"/>
  <rect x="23" y="41" width="3" height="1" fill="#FFF6E4"/>
  <rect x="26" y="41" width="1" height="1" fill="#DC7C24" fill-opacity="0.686"/>
  <rect x="27" y="41" width="7" height="1" fill="#FFF6E4"/>
  <rect x="34" y="41" width="1" height="1" fill="#7E4617"/>
  <rect x="14" y="42" width="2" height="1" fill="#7E4617"/>
  <rect x="16" y="42" width="9" height="1" fill="#FFF6E4"/>
  <rect x="25" y="42" width="1" height="1" fill="#DC7C24" fill-opacity="0.686"/>
  <rect x="26" y="42" width="7" height="1" fill="#FFF6E4"/>
  <rect x="33" y="42" width="2" height="1" fill="#7E4617"/>
  <rect x="15" y="43" width="1" height="1" fill="#7E4617"/>
  <rect x="16" y="43" width="7" height="1" fill="#FFF6E4"/>
  <rect x="23" y="43" width="4" height="1" fill="#DC7C24" fill-opacity="0.686"/>
  <rect x="27" y="43" width="6" height="1" fill="#FFF6E4"/>
  <rect x="33" y="43" width="1" height="1" fill="#7E4617"/>
  <rect x="15" y="44" width="2" height="1" fill="#7E4617"/>
  <rect x="17" y="44" width="3" height="1" fill="#FFF6E4"/>
  <rect x="20" y="44" width="9" height="1" fill="#7E4617"/>
  <rect x="29" y="44" width="3" height="1" fill="#FFF6E4"/>
  <rect x="32" y="44" width="2" height="1" fill="#7E4617"/>
  <rect x="16" y="45" width="5" height="1" fill="#7E4617"/>
  <rect x="25" y="45" width="1" height="1" fill="#7E4617"/>
  <rect x="28" y="45" width="5" height="1" fill="#7E4617"/>
  <rect x="18" y="46" width="1" height="1" fill="#7E4617"/>
  <rect x="30" y="46" width="1" height="1" fill="#7E4617"/>
</svg>
